<svg xmlns="http://www.w3.org/2000/svg" viewBox="0 0 1500 1500" width="32" height="32">
  <style>
    line { stroke: #0A0A0F; stroke-width: 14; stroke-miterlimit: 10; fill: none; stroke-linecap: round; }
    circle { fill: #0A0A0F; stroke: #0A0A0F; stroke-miterlimit: 10; }
  </style>
  <line x1="803.21" y1="633.63" x2="885.74" y2="277.17"/>
  <line x1="803.21" y1="633.63" x2="1159.72" y2="633.63"/>
  <line x1="640.23" y1="1028.34" x2="805.39" y2="624.19"/>
  <line x1="976.14" y1="854.8" x2="803.21" y2="633.63"/>
  <line x1="617.13" y1="446.84" x2="805.39" y2="633.63"/>
  <line x1="351.75" y1="614.83" x2="805.39" y2="633.63"/>
  <line x1="885.74" y1="277.17" x2="617.13" y2="446.84"/>
  <line x1="853.17" y1="80.26" x2="885.74" y2="277.17"/>
  <line x1="1075.48" y1="65.05" x2="885.74" y2="277.17"/>
  <line x1="1075.48" y1="65.05" x2="853.17" y2="80.26"/>
  <line x1="351.75" y1="614.83" x2="617.13" y2="446.84"/>
  <line x1="425.19" y1="822.23" x2="617.13" y2="446.84"/>
  <line x1="425.19" y1="822.23" x2="352.14" y2="614.84"/>
  <line x1="425.19" y1="822.23" x2="976.14" y2="854.8"/>
  <line x1="1159.72" y1="634.54" x2="1075.48" y2="65.05"/>
  <line x1="1159.72" y1="634.54" x2="885.74" y2="277.17"/>
  <line x1="980.61" y1="854.8" x2="1159.72" y2="633.63"/>
  <line x1="1171.02" y1="1199.75" x2="1159.72" y2="633.63"/>
  <line x1="985.5" y1="854.8" x2="640.23" y2="1028.34"/>
  <line x1="505.67" y1="979.23" x2="425.19" y2="822.23"/>
  <line x1="640.23" y1="1028.34" x2="505.67" y2="979.23"/>
  <line x1="985.5" y1="1167.18" x2="640.23" y2="1028.34"/>
  <line x1="985.5" y1="1167.18" x2="976.14" y2="854.8"/>
  <line x1="822.23" y1="1450.16" x2="640.23" y2="1028.34"/>
  <line x1="1171.02" y1="1199.75" x2="980.61" y2="854.8"/>
  <line x1="822.23" y1="1450.16" x2="985.5" y2="1167.18"/>
  <line x1="1171.02" y1="1199.63" x2="985.5" y2="1167.18"/>
  <line x1="822.23" y1="1450.16" x2="1171.02" y2="1199.75"/>
  <circle cx="801.87" cy="626.03" r="32.57"/>
  <circle cx="1158.38" cy="626.03" r="32.57"/>
  <circle cx="615.79" cy="439.24" r="32.57"/>
  <circle cx="974.8" cy="847.2" r="32.57"/>
  <circle cx="350.42" cy="607.22" r="32.57"/>
  <circle cx="884.4" cy="269.57" r="32.57"/>
  <circle cx="851.83" cy="72.65" r="32.57"/>
  <circle cx="1074.14" cy="57.44" r="32.57"/>
  <circle cx="423.85" cy="814.63" r="32.57"/>
  <circle cx="504.34" cy="971.62" r="32.57"/>
  <circle cx="638.9" cy="1020.73" r="32.57"/>
  <circle cx="984.17" cy="1159.57" r="32.57"/>
  <circle cx="1169.69" cy="1192.14" r="32.57"/>
  <circle cx="819.26" cy="1442.56" r="32.57"/>
</svg>
